<?xml version="1.0" standalone="no"?>
<!DOCTYPE svg PUBLIC "-//W3C//DTD SVG 20010904//EN"
 "http://www.w3.org/TR/2001/REC-SVG-20010904/DTD/svg10.dtd">
<svg version="1.0" xmlns="http://www.w3.org/2000/svg"
 width="72.000000pt" height="72.000000pt" viewBox="0 0 72.000000 72.000000"
 preserveAspectRatio="xMidYMid meet">
<g transform="translate(0.000000,72.000000) scale(0.100000,-0.100000)"
fill="#000000" stroke="none">
<path d="M321 701 c-8 -5 -20 -7 -28 -4 -7 3 -19 1 -26 -5 -7 -6 -26 -13 -42
-16 -15 -3 -31 -9 -34 -13 -3 -4 -13 -9 -21 -11 -18 -4 -89 -76 -92 -94 -2 -7
-11 -19 -21 -26 -9 -7 -15 -18 -12 -23 4 -5 1 -9 -5 -9 -6 0 -9 -4 -6 -9 3 -4
-1 -17 -9 -27 -17 -23 -22 -199 -5 -189 6 4 10 -6 10 -23 0 -16 9 -37 20 -47
11 -10 20 -23 20 -30 0 -15 65 -85 79 -85 7 0 23 -11 36 -24 13 -13 34 -23 47
-22 12 0 31 -7 41 -17 15 -15 21 -16 35 -5 11 9 14 10 8 0 -9 -15 6 -16 22 0
9 9 12 9 12 -1 0 -11 3 -11 15 -1 12 10 15 10 15 0 0 -10 3 -10 14 -1 11 9 15
9 19 -1 4 -11 6 -10 6 0 1 7 5 10 11 7 5 -3 21 2 35 11 14 9 25 13 25 9 0 -3
7 1 16 9 8 9 22 16 29 16 8 0 24 13 37 30 12 16 30 33 41 36 10 3 16 8 14 11
-3 2 6 15 20 29 14 14 22 31 19 40 -3 8 -1 12 4 9 11 -7 25 39 16 53 -3 6 1
12 9 16 22 8 21 113 -2 138 -9 10 -11 18 -5 18 13 0 4 29 -15 48 -7 8 -11 18
-8 23 4 5 2 9 -2 9 -5 0 -17 14 -27 31 -10 17 -24 28 -30 26 -9 -4 -12 5 -11
25 2 31 -3 35 -43 41 -13 2 -27 8 -30 13 -4 5 -19 9 -34 9 -15 -1 -30 5 -32
11 -3 7 -13 13 -23 13 -10 0 -30 2 -45 4 -15 2 -25 0 -22 -4 3 -5 0 -9 -5 -9
-6 0 -11 5 -11 10 0 12 -10 13 -29 1z"/>
</g>
</svg>
